<?xml version="1.0" standalone="no"?>
<!DOCTYPE svg PUBLIC "-//W3C//DTD SVG 20010904//EN"
 "http://www.w3.org/TR/2001/REC-SVG-20010904/DTD/svg10.dtd">
<svg version="1.0" xmlns="http://www.w3.org/2000/svg"
 width="788.000000pt" height="788.000000pt" viewBox="0 0 788.000000 788.000000"
 preserveAspectRatio="xMidYMid meet">

<g transform="translate(0.000000,788.000000) scale(0.100000,-0.100000)"
fill="#000000" stroke="none">
<path d="M0 3941 l0 -3941 3940 0 c3333 0 3940 2 3940 14 0 7 -1755 1779
-3900 3937 -3782 3805 -3902 3924 -3940 3927 l-40 3 0 -3940z m2100 211 l0
-117 -57 -34 c-32 -18 -78 -46 -103 -63 -64 -43 -288 -173 -419 -243 l-111
-60 316 -3 c304 -2 323 -1 468 24 144 25 169 27 521 28 337 1 373 -1 402 -17
45 -24 63 -55 73 -124 5 -32 15 -87 24 -123 9 -36 16 -96 16 -135 0 -79 22
-267 45 -395 8 -47 15 -130 15 -185 0 -103 24 -302 60 -505 12 -63 27 -182 35
-265 7 -82 23 -193 34 -245 11 -52 21 -128 21 -167 0 -44 4 -73 10 -73 7 0 10
-40 8 -112 l-3 -113 -75 -11 c-41 -5 -82 -13 -90 -17 -9 -4 -198 -6 -420 -4
-305 3 -428 7 -500 19 -52 8 -102 18 -110 21 -8 4 -75 13 -149 22 -88 9 -140
20 -151 30 -14 13 -79 15 -468 15 l-452 0 0 26 c0 15 -7 32 -15 38 -10 8 -17
38 -21 101 -3 50 -14 144 -24 210 -10 66 -22 165 -26 220 -3 55 -19 153 -35
218 -16 65 -29 146 -29 180 0 34 -13 118 -30 187 -25 107 -31 158 -40 350 -5
124 -16 290 -24 370 -9 80 -15 207 -16 282 0 133 1 137 26 167 14 17 33 31 42
31 21 0 162 68 187 90 11 10 31 21 45 25 14 4 45 20 70 35 25 15 101 58 170
95 128 70 320 181 399 232 25 15 70 43 100 62 31 19 58 38 59 43 2 4 53 8 113
8 l109 0 0 -118z"/>
<path d="M2635 3460 c-77 -4 -192 -17 -255 -29 -109 -20 -146 -21 -738 -21
l-624 0 5 -62 c3 -35 10 -166 16 -293 8 -167 17 -254 32 -317 l21 -86 31 10
c69 22 336 30 1116 34 l813 5 -7 26 c-12 50 -35 267 -35 338 0 39 -7 99 -16
135 -9 36 -19 91 -24 123 -19 132 -65 151 -335 137z"/>
<path d="M1645 2469 c-22 -4 -83 -8 -135 -9 -52 0 -120 -7 -150 -15 -30 -8
-97 -15 -147 -15 -51 0 -93 -4 -93 -9 0 -5 11 -56 24 -113 14 -57 27 -146 31
-198 4 -52 15 -148 26 -213 10 -65 19 -137 19 -159 0 -22 5 -81 12 -129 l12
-89 460 0 c396 0 462 -2 476 -15 11 -10 63 -21 151 -30 74 -9 141 -18 149 -22
75 -29 548 -57 595 -34 11 5 45 12 76 16 l57 6 -14 57 c-8 31 -21 127 -29 212
-8 85 -24 207 -35 270 -29 162 -60 396 -60 453 l0 47 -692 -1 c-381 -1 -711
-5 -733 -10z"/>
<path d="M4895 7471 c-69 -17 -102 -60 -93 -120 4 -26 0 -32 -25 -42 -60 -25
-72 -107 -23 -152 24 -22 36 -57 55 -157 6 -30 18 -93 27 -140 9 -47 20 -132
25 -190 4 -58 12 -125 18 -150 9 -41 36 -204 47 -275 7 -52 39 -93 77 -100 45
-9 95 17 108 54 l10 28 147 -4 c449 -11 422 -5 422 -93 l0 -60 -155 0 c-116 0
-163 -4 -184 -14 -28 -15 -51 -53 -51 -87 0 -32 28 -77 52 -85 13 -5 84 -7
159 -5 75 2 146 0 158 -4 20 -6 21 -13 21 -116 l0 -109 -355 0 c-253 0 -362
-3 -380 -12 -27 -12 -55 -54 -55 -83 0 -29 28 -71 55 -83 18 -9 127 -12 380
-12 340 0 356 -1 375 -20 38 -38 102 -38 140 0 29 29 106 25 315 -15 39 -7
127 -18 197 -23 81 -6 136 -15 150 -24 13 -9 62 -18 113 -22 50 -4 120 -14
157 -23 56 -13 72 -14 98 -3 31 13 60 54 60 85 0 26 -29 74 -52 86 -32 17
-123 36 -213 44 -44 4 -92 14 -107 21 -15 8 -87 19 -160 24 -73 6 -164 17
-203 25 -81 16 -236 35 -289 35 l-36 0 0 95 0 95 26 0 c14 0 33 -4 42 -9 9 -5
62 -14 117 -20 55 -7 121 -19 146 -28 52 -18 89 -13 119 17 48 48 32 116 -35
156 -33 19 -71 28 -160 39 -64 8 -121 18 -127 21 -6 4 -36 10 -67 13 l-56 6
-3 66 -3 66 68 -9 c72 -8 127 -19 233 -45 36 -9 94 -19 130 -23 36 -4 72 -10
80 -14 8 -3 49 -10 90 -15 41 -5 89 -15 107 -22 28 -11 37 -11 68 4 20 9 54
17 76 17 53 0 93 22 109 59 23 55 -11 116 -70 128 l-30 5 6 87 c3 47 14 127
25 176 18 80 20 118 16 335 -4 264 -12 324 -53 407 -21 44 -39 62 -97 102 -40
26 -90 54 -112 61 -22 7 -58 23 -81 36 l-41 24 -739 -1 c-406 -1 -752 -4 -769
-8z m799 -197 c3 -9 6 -69 6 -135 l0 -119 -350 0 -349 0 -6 38 c-3 20 -12 60
-19 87 -35 125 -36 129 -23 137 7 4 175 8 373 8 321 0 363 -2 368 -16z m705
-10 c111 -50 160 -78 167 -93 12 -28 25 -113 31 -199 5 -80 4 -83 -14 -74 -10
6 -57 13 -103 17 -47 4 -116 18 -155 30 -90 30 -193 52 -275 60 -36 3 -86 8
-112 11 l-48 6 0 134 0 134 227 0 c221 0 227 -1 282 -26z m-699 -647 l0 -214
-202 4 c-112 2 -249 6 -305 9 l-102 6 -11 71 c-6 40 -15 85 -21 101 -5 16 -9
56 -9 90 -1 34 -5 80 -9 104 l-8 42 333 0 334 0 0 -213z m345 193 c148 -26
171 -32 265 -65 52 -19 242 -30 269 -16 20 11 21 10 21 -54 0 -37 -9 -101 -19
-143 -10 -43 -22 -122 -25 -177 -4 -54 -9 -101 -11 -104 -3 -2 -38 1 -78 8
-39 7 -94 15 -122 18 -27 2 -63 10 -80 18 -29 13 -90 24 -250 46 -44 6 -90 13
-102 15 l-23 4 0 234 0 233 53 -4 c28 -3 75 -9 102 -13z"/>
<path d="M4581 5256 c-47 -26 -50 -46 -51 -280 0 -237 8 -292 58 -395 40 -82
109 -104 162 -51 39 39 37 68 -14 205 -12 31 -15 88 -16 247 0 224 -5 250 -51
274 -34 17 -57 17 -88 0z"/>
<path d="M5238 5215 c-30 -17 -58 -62 -58 -92 0 -11 16 -43 35 -73 21 -34 35
-68 35 -88 0 -19 18 -79 40 -133 22 -55 40 -106 40 -114 0 -8 13 -29 28 -47
15 -18 44 -58 64 -89 53 -81 117 -100 168 -49 45 45 38 84 -36 196 -54 82
-114 226 -114 273 0 36 -68 188 -93 210 -24 20 -79 23 -109 6z"/>
<path d="M5978 5085 c-29 -16 -58 -62 -58 -90 0 -26 28 -73 47 -79 10 -3 26
-23 35 -44 42 -89 118 -222 190 -329 51 -76 106 -105 159 -83 30 13 59 54 59
85 0 23 -33 80 -95 165 -31 41 -58 83 -61 92 -4 10 -17 37 -30 60 -14 24 -40
76 -60 115 -51 104 -121 145 -186 108z"/>
<path d="M6659 4945 c-74 -40 -53 -155 31 -171 16 -4 37 -18 46 -33 39 -61
156 -211 164 -211 5 0 41 -44 79 -97 126 -176 168 -209 232 -183 31 13 59 55
59 88 0 10 -17 44 -37 75 -58 85 -193 257 -202 257 -5 0 -32 33 -61 73 -110
150 -136 181 -165 199 -36 22 -109 23 -146 3z"/>
</g>
</svg>
